<svg xmlns="http://www.w3.org/2000/svg" fill="none" viewBox="0 0 128 128"><defs/><path fill="#300" d="M0 0h128v128H0z"/><path fill="#FF9A00" d="M62.408 77.921H42.873L38.882 90.97a.994.994 0 01-1.015.761h-9.895c-.564 0-.761-.31-.593-.93l16.866-48.708c.17-.508.338-1.086.507-1.734.232-.947.346-1.919.339-2.893a.523.523 0 01.591-.592H59.13c.394 0 .62.142.676.423l19.249 53.588c.168.565-.001.847-.508.846H67.55a.783.783 0 01-.846-.592l-4.297-13.218zm-16.6-9h14.315c-.338-1.127-1.502-3.732-1.953-5.142-.452-1.409-1.07-2.53-1.578-4.138l-1.523-4.82a158.75 158.75 0 01-1.395-4.652c-.422-1.493-.803-2.86-1.141-4.101h-.085a67.901 67.901 0 01-1.777 6.765c-.79 2.538-1.593 5.131-2.41 7.78-.818 2.651-1.664 6.054-2.452 8.308zM90.493 45.703a6.137 6.137 0 01-4.652-1.86 6.691 6.691 0 01-1.777-4.821 6.206 6.206 0 011.904-4.694 6.534 6.534 0 014.693-1.818 6.291 6.291 0 014.778 1.818 6.523 6.523 0 011.734 4.694 6.605 6.605 0 01-1.819 4.82 6.486 6.486 0 01-4.861 1.861zM85.017 90.89V52.223c0-.508.224-.761.677-.761h9.61c.45 0 .676.254.676.761V90.89c0 .564-.226.847-.677.846h-9.525c-.508 0-.762-.282-.761-.846z"/></svg>