<svg id="レイヤー_1" data-name="レイヤー 1" xmlns="http://www.w3.org/2000/svg" viewBox="0 0 528.4 528.1"><defs><style>.cls-1{fill:#303030;stroke:#303030;stroke-miterlimit:10;stroke-width:20px}</style></defs><path class="cls-1" d="M509 267L386 144l4-5 124 123-5 5zM386 389L262 267l5-5 123 122-4 5z"/><path class="cls-1" d="M329 328l-5-5 123-123 5 5-123 123zM386 144L262 21l5-4 123 122-4 5z"/><path class="cls-1" d="M140 146l-4-4L264 14l5 5-129 127z"/><path class="cls-1" d="M262 267L138 144l5-5 124 123-5 5zM264 514l-5-5 129-127 5 5-129 127z"/><path class="cls-1" d="M143 389l-5-5 124-122 5 5-124 122z"/><path class="cls-1" d="M264 514L136 387l4-5 129 127-5 5zM19 267l-5-5 124-123 5 5L19 267z"/><path stroke-width="5" fill="#303030" stroke="#303030" stroke-miterlimit="10" d="M259 264v-46h11v46z"/></svg>