<svg xmlns="http://www.w3.org/2000/svg" viewBox="0 0 528.42 528.15"><path fill="#303030" stroke="#303030" stroke-miterlimit="10" stroke-width="20" d="M509.26 266.52L385.5 143.97l4.95-4.9 123.76 122.55-4.95 4.9zM385.5 389.07L261.74 266.52l4.95-4.9 123.76 122.55-4.95 4.9z"/><path fill="#303030" stroke="#303030" stroke-miterlimit="10" stroke-width="20" d="M328.57 327.8l-4.95-4.9 123.76-122.55 4.95 4.9L328.57 327.8zM385.5 143.97L261.74 21.43l4.95-4.91 123.76 122.55-4.95 4.9z"/><path fill="#303030" stroke="#303030" stroke-miterlimit="10" stroke-width="20" d="M140.45 146.43l-4.95-4.9L264.21 14.07l4.95 4.9-128.71 127.46z"/><path fill="#303030" stroke="#303030" stroke-miterlimit="10" stroke-width="20" d="M261.74 266.52L137.97 143.97l4.96-4.9 123.76 122.55-4.95 4.9zM264.21 514.07l-4.95-4.9 128.72-127.45 4.95 4.9-128.72 127.45z"/><path fill="#303030" stroke="#303030" stroke-miterlimit="10" stroke-width="20" d="M142.93 389.07l-4.96-4.9 123.77-122.55 4.95 4.9-123.76 122.55z"/><path fill="#303030" stroke="#303030" stroke-miterlimit="10" stroke-width="20" d="M264.21 514.07L135.5 386.62l4.95-4.9 128.71 127.45-4.95 4.9zM19.16 266.52l-4.95-4.9 123.76-122.55 4.96 4.9L19.16 266.52z"/><path fill="#303030" stroke="#303030" stroke-miterlimit="10" stroke-width="5" d="M258.59 264.05l.09-45.65 11.23.02-.09 45.65z"/></svg>