<svg xmlns="http://www.w3.org/2000/svg" fill="none" viewBox="0 0 128 128"><defs/><path fill="#00005B" d="M0 0h128v128H0z"/><path fill="#99F" d="M52.563 78.142H33.026l-3.974 12.882a.996.996 0 01-1.015.761H18.14c-.563 0-.76-.31-.591-.93l16.915-48.033c.169-.507.337-1.085.507-1.734a18.06 18.06 0 00.338-3.425.524.524 0 01.593-.592h13.446c.393 0 .62.142.676.423L69.223 90.94c.168.565 0 .847-.508.846H57.722a.78.78 0 01-.846-.592l-4.313-13.05zm-16.492-9h13.363c-.34-1.127-.734-3.44-1.185-4.85-.451-1.409-.93-2.917-1.438-4.525l-1.522-4.82a166.053 166.053 0 01-1.395-4.652c-.422-1.494-.802-2.86-1.14-4.102h-.086a68.225 68.225 0 01-1.777 6.766c-.79 2.537-1.593 5.13-2.41 7.78-.817 2.651-1.62 6.149-2.41 8.404zM100.234 73.528H83.573a12.886 12.886 0 001.72 4.844 8.698 8.698 0 003.847 3.172A16.621 16.621 0 0096.001 83a23.101 23.101 0 004.725-.371c1.7-.304 3.36-.8 4.948-1.48.281-.225.422-.084.423.422v8.035c.014.219-.03.438-.127.634a1.21 1.21 0 01-.381.38 23.702 23.702 0 01-5.498 1.819 33.95 33.95 0 01-6.85.269 24.13 24.13 0 01-10.063-1.861 17.94 17.94 0 01-6.597-4.99 19.551 19.551 0 01-3.636-6.892 27.141 27.141 0 01-1.1-7.654 26.651 26.651 0 011.312-8.33 21.735 21.735 0 013.932-7.189 18.886 18.886 0 016.343-4.99 19.834 19.834 0 018.795-1.818c2.954-.04 5.883.538 8.6 1.697a14.759 14.759 0 015.539 4.356 19.232 19.232 0 013.128 5.962 21.25 21.25 0 011.016 6.427c0 1.24-.043 2.368-.127 3.383-.071.605-.18 1.204-.326 1.794a.763.763 0 01-.761.677c-.337 0-.916.043-1.732.127-.819.085-2.271.051-3.482.079-1.214.029-2.497.043-3.848.042zM83.525 66.81h11.079c1.353 0 2.354-.014 3.002-.042.412 0 .823-.042 1.226-.127v-.507a14.257 14.257 0 00-.177-3.026 6.91 6.91 0 00-6.85-4.82 7.348 7.348 0 00-6.978 3.975 17.75 17.75 0 00-1.302 4.547z"/></svg>