<svg xmlns="http://www.w3.org/2000/svg" fill="none" viewBox="0 0 128 128"><defs/><path fill="#00005B" d="M0 0h128v128H0z"/><path fill="#99F" d="M60.807 91.058l-.04.016c-2.715 1.108-6.446 1.64-11.148 1.64-7.671 0-14.069-2.3-19.138-6.934-5.115-4.674-7.613-11.696-7.613-20.93 0-8.203 2.488-14.852 7.512-19.876 5.075-5.076 11.75-7.592 19.955-7.592 4.83 0 8.52.552 10.991 1.72.298.111.537.316.692.6.151.278.201.593.201.898v6.917c0 .19-.015.383-.062.561-.046.17-.142.406-.366.575a.897.897 0 01-.767.144 1.434 1.434 0 01-.48-.234c-2.513-1.398-5.797-2.121-9.891-2.121-5.15 0-9.146 1.59-12.07 4.716l-.004.004c-2.919 3.07-4.425 7.492-4.425 13.37 0 3.591.52 6.683 1.541 9.289 1.08 2.621 2.474 4.551 4.157 5.838 1.75 1.338 3.538 2.307 5.366 2.916 1.892.614 3.861.92 5.912.92 3.318 0 6.362-.49 9.14-1.465.24-.1.667-.213 1.05.06.377.27.422.714.422.966v6.36c0 .686-.287 1.272-.896 1.62l-.038.022zM71.31 91.61c-.243-.278-.305-.626-.305-.921V35.114c0-.292.09-.625.374-.869.265-.227.59-.281.856-.281h8.587c.266 0 .591.054.856.281.284.244.374.577.374.87V53.73c2.725-1.678 5.792-2.515 9.185-2.515 3.821 0 7.066 1.28 9.689 3.845 2.738 2.57 4.024 6.743 4.024 12.333v23.295c0 .316-.08.677-.357.954-.276.276-.637.356-.953.356h-8.428c-.316 0-.676-.08-.953-.356-.277-.277-.356-.638-.356-.954V67.235c0-2.525-.512-4.293-1.422-5.421-.886-1.1-2.239-1.697-4.186-1.697-2.331 0-4.405.748-6.243 2.262v28.39c0 .289-.073.63-.336.893-.264.264-.605.337-.894.337h-8.587c-.314 0-.666-.094-.924-.39z"/></svg>