<svg xmlns="http://www.w3.org/2000/svg" fill="none" viewBox="0 0 128 128"><defs/><path fill="#00005B" d="M0 0h128v128H0z"/><path fill="#99F" d="M30.183 90.593V36.65c0-.457.228-.686.457-.686h11.885c1.6 0 3.657.457 5.258.457 3.657 0 7.314.458 10.742 1.6 2.743.915 5.029 2.286 7.086 4.343 1.6 1.6 2.971 3.657 3.886 5.943.686 2.286 1.143 4.572 1.143 6.857.228 3.886-.915 7.772-3.2 11.2-2.058 2.972-5.029 5.257-8.457 6.4-3.886 1.372-7.772 2.057-11.886 2.057h-2.514c-.458 0-2.515-.457-3.658-.457V91.05c0 .457-.228.686-.685.686h-9.6c-.229-.457-.457-.686-.457-1.143zm10.97-44.572v17.6c.687 0 2.744.458 3.43.458h2.742c2.057 0 4.115-.229 5.943-.915 1.6-.457 3.2-1.371 4.343-2.743 1.143-1.6 1.829-3.428 1.6-5.485 0-1.6-.457-3.2-1.143-4.572-.914-1.371-2.285-2.514-3.657-2.971-2.057-.686-4.114-1.143-6.171-1.143h-3.657c-1.143.229-3.2-.229-3.43-.229zM77.954 49.679h9.143c.457 0 .914.457 1.143.914.228.457.457.686.457 1.143.229.457.229 1.143.229 1.6v1.828c1.6-1.828 3.428-3.428 5.714-4.571 2.286-1.372 4.8-2.057 7.314-1.829.457 0 .686.229.686.457v10.515c0 .457-.229.685-.914.685-1.829-.228-3.429 0-5.029.458a13.79 13.79 0 00-4.343 1.371c-1.143.457-2.514 1.143-3.428 2.057V91.05c0 .457-.229.686-.686.686h-9.6c-.457 0-.686-.229-.914-.686V61.793v-3.886c0-1.371 0-2.743-.229-4.114 0-1.143-.229-2.286-.229-3.429 0-.228 0-.228.229-.457 0-.228.229-.228.457-.228z"/></svg>