<svg xmlns="http://www.w3.org/2000/svg" viewBox="0 0 262.52 298.02"><path d="M23.87 267.75L0 .01h262.52l-23.87 267.74-107.68 30.26" fill="#e34f26"/><path d="M131.55 274.74l86.71-23.87 20.39-229.33h-107.1" fill="#ef652a"/><path d="M131.55 121.07H87.9l-2.91-33.76h46.56v-32.6H48.9l.58 8.74 8.15 90.8h73.92zm0 85.57h-.58l-36.71-9.9-2.33-26.19H59.37l4.08 51.8 67.52 18.66h.58z" fill="#ebebeb"/><path d="M130.97 121.07v33.18h40.74l-4.07 42.49-36.67 9.9v34.37l67.52-18.63.58-5.82 7.57-86.73 1.16-8.73h-76.83zm0-66.36v32.6h79.74l.59-7 1.74-16.88.58-8.74z" fill="#fff"/></svg>