<svg xmlns="http://www.w3.org/2000/svg" viewBox="0 0 301.84 294.29"><path d="M64.92 0h172a65 65 0 0165 65v164.33a65 65 0 01-65 64.95h-172a65 65 0 01-65-64.95V64.95A65 65 0 0164.92 0z" fill="#470137"/><path d="M158.67 77.39l-37.66 62.17 40.29 66a2.06 2.06 0 01.2 1.52c-.13.47-.6.17-1.41.31h-28.76c-2 0-3.45-.08-4.26-1.43q-4.05-7.91-8.1-15.7t-8.6-15.89q-4.58-8.1-9-16.4h-.2q-4 8.08-8.4 16.19t-8.61 16.1q-4.26 8-8.69 15.89c-.55 1.22-1.49 1.34-2.84 1.34H44.92c-.53 0-.84.22-.91-.33a2.05 2.05 0 01.31-1.41l39.08-64.21-38.13-64.35c-.4-.55-.47-1-.2-1.34a1.47 1.47 0 011.22-.5h28.55a4.06 4.06 0 011.82.3 3.61 3.61 0 011.26 1.12q3.64 8.1 8.11 16.19t9 16q4.56 7.89 8.4 16h.2q4-8.31 8.2-16.2t8.5-15.9q4.35-8 8.4-15.89a3.09 3.09 0 01.81-1.34 2.92 2.92 0 011.62-.3h26.53a1.16 1.16 0 011.4.84 1.17 1.17 0 01-.39 1.18zM216.78 210.02a62.78 62.78 0 01-27-5.67 42.93 42.93 0 01-18.96-17.11 54.71 54.71 0 01-6.9-28.65 53 53 0 016.89-26.53 50.49 50.49 0 0120.11-19.43 64.65 64.65 0 0131.78-7.3c.67 0 1.55 0 2.63.1s2.37.17 3.85.31v-39.9c0-.94.4-1.41 1.22-1.41h25.52a1.06 1.06 0 011.21.91.76.76 0 010 .3v119.7c0 2.3.11 4.79.31 7.49s.38 5.12.51 7.28a2.1 2.1 0 01-1.22 2 100.58 100.58 0 01-20.45 6.07 109.51 109.51 0 01-19.5 1.84zm12.35-25.11v-55.28a20 20 0 00-3.34-.61 41.23 41.23 0 00-4.16-.2 31.35 31.35 0 00-14.17 3.24 26.07 26.07 0 00-14.78 25.31 35.62 35.62 0 002.13 13 24.57 24.57 0 005.67 8.9 21.38 21.38 0 008.5 5.06 33.58 33.58 0 0010.43 1.63c1.89 0 3.64-.07 5.27-.21a21.12 21.12 0 004.45-.81z" fill="#ff61f6"/></svg>