<svg xmlns="http://www.w3.org/2000/svg" fill="none" viewBox="0 0 128 128"><defs/><path fill="#470137" d="M0 0h128v128H0z"/><path fill="#FF61F6" d="M67.859 37.984l-15.73 25.318 16.83 27.41c.107.192.138.419.085.634-.058.198-.254.325-.593.38H56.442a1.895 1.895 0 01-1.775-.846c-1.13-2.198-2.257-4.222-3.384-6.393a228.879 228.879 0 00-3.594-6.639 393.734 393.734 0 01-3.763-6.85h-.085a262.916 262.916 0 01-3.51 6.766 1332.05 1332.05 0 00-3.594 6.723c-1.184 2.228-2.396 4.28-3.637 6.478a1.197 1.197 0 01-1.183.761H20.33a.345.345 0 01-.38-.338.84.84 0 01.126-.592L36.4 64.148l-15.9-26.25c-.17-.224-.196-.407-.085-.549a.617.617 0 01.508-.211h11.925c.26-.015.52.029.762.127.201.115.374.273.506.465 1.016 2.255 2.143 3.867 3.383 6.12a365.388 365.388 0 003.764 6.682 94.192 94.192 0 013.51 6.681h.084a252.612 252.612 0 013.424-6.766c1.157-2.199 2.34-4.412 3.553-6.639 1.212-2.226 2.38-3.795 3.51-5.994.064-.209.18-.398.338-.55.209-.105.444-.15.677-.127h11.079a.485.485 0 01.422.847zM91.274 93.518c-3.893.059-7.75-.75-11.29-2.369a17.956 17.956 0 01-7.909-7.146A22.86 22.86 0 0169.2 72.036a22.085 22.085 0 012.875-11.079 21.115 21.115 0 018.373-8.118 27.028 27.028 0 0113.278-3.045c.282 0 .648.014 1.1.042.45.03 1.41.072 2.03.127V35.001a1.362 1.362 0 011.15-1.533h8.185a1.535 1.535 0 011.529 1.529V83.2c0 .959.042 2.002.126 3.129.085 1.128.156 2.143.212 3.044a.874.874 0 01-.506.846 38.816 38.816 0 01-8.16 2.537 45.879 45.879 0 01-8.118.762zM96.66 83.03V59.942a11.797 11.797 0 00-1.623-.253 16.771 16.771 0 00-1.734-.085c-2.052-.02-4.08.443-5.92 1.353A10.884 10.884 0 0081.21 71.53c-.04 1.843.26 3.678.888 5.412a10.28 10.28 0 002.369 3.722 9.015 9.015 0 003.551 2.113c1.407.456 2.877.684 4.355.677.79 0 1.523-.028 2.2-.085a11.466 11.466 0 002.088-.338z"/></svg>